<?xml version="1.0" encoding="UTF-8"?>
<svg width="129px" height="30px" viewBox="0 0 129 30" version="1.1" xmlns="http://www.w3.org/2000/svg" xmlns:xlink="http://www.w3.org/1999/xlink">
    <!-- Generator: sketchtool 53.2 (72643) - https://sketchapp.com -->
    <title>CDEF7CC7-BE70-4310-AB26-E9B3F22FEA20@1x</title>
    <desc>Created with sketchtool.</desc>
    <g id="Navegación-Web" stroke="none" stroke-width="1" fill="none" fill-rule="evenodd">
        <g id="Modulo-Header-scroll-XL" transform="translate(-199.000000, -9.000000)" fill="#FFFFFF" fill-rule="nonzero">
            <g id="component/Xl/Header/Scroll">
                <g id="component/Logo/white" transform="translate(199.000000, 9.000000)">
                    <g id="logo-2">
                        <path d="M35.4799885,23.0685353 L33.4031112,7.2803737 C33.230038,5.71028028 33.230038,4.57632392 33.7492574,3.87850462 C34.1819402,3.35514015 34.9607692,3.0062305 36.172281,2.91900309 L36.3453541,2.91900309 L36.3453541,1.00000002 L27.6916984,1.00000002 L27.7782349,1.26168226 C28.2109177,3.18068533 27.8647715,5.09968839 26.6532597,7.978193 C25.2686748,11.2928347 22.9321877,16.0903423 19.8168716,22.2834886 C19.0380426,19.9283485 17.7399943,17.3987535 16.4419459,14.7819311 C14.1919954,10.1588783 11.7689718,5.44859804 11.5093621,1.17445485 L11.5093621,1.00000002 L3.11531607,1.00000002 L3.11531607,2.91900309 L3.28838918,2.91900309 C4.41336443,3.0062305 5.10565689,3.35514015 5.62487623,3.87850462 C6.23063213,4.66355133 6.40370525,5.97196252 6.05755902,8.06542041 L3.80760853,23.0685353 C3.37492574,25.9470399 2.42302361,26.9937688 0.259609672,26.9937688 L0,26.9937688 L0,28.9999993 L9.77863099,28.9999993 L9.77863099,27.0809963 L9.60555787,27.0809963 C8.22097295,26.9937688 7.26907082,26.6448592 6.74985148,25.9470399 C6.05755902,25.0747658 5.8844859,23.6791272 6.23063213,21.4984419 L8.22097295,7.62928335 C9.3459482,10.943925 11.1632159,14.6074763 12.8939471,18.0965728 C14.9708244,22.2834886 16.8746287,26.2087221 17.393848,28.8255445 L17.393848,28.9999993 L19.6437985,28.9999993 L19.6437985,28.8255445 C20.2495544,26.1214947 21.8072125,22.8940805 23.7110167,19.2305292 C25.4417479,15.9158875 27.2590156,12.1651088 28.6436005,8.23987523 L30.3743317,22.9813079 C30.5474048,24.3769465 30.2877951,25.336448 29.6820392,26.0342673 C29.1628198,26.6448592 28.2109177,26.9937688 27.0859425,26.9937688 L27.172479,26.9937688 L27.172479,28.9999993 L39.7202799,28.9999993 L39.7202799,27.0809963 L39.5472067,27.0809963 C36.6049638,26.5576318 35.8261348,25.2492206 35.4799885,23.0685353" id="Shape"></path>
                        <path d="M55.3337307,24.3497758 C53.8970398,25.6950673 52.3758376,26.32287 50.6011018,26.32287 C48.826366,26.32287 47.2206526,25.6053812 46.0374954,24.2600897 C44.6853157,22.735426 44.0092259,20.5829596 44.0092259,18.0717489 L56.5168879,18.0717489 L56.5168879,17.8923767 C56.5168879,14.7533632 54.1505735,10 49.0798997,10 C44.2627596,10 40.7132879,14.3946188 40.7132879,20.2242152 C40.7132879,25.8744395 44.1782483,30 49.0798997,30 C52.1223039,30 54.8266633,28.2959641 56.5168879,25.3363229 L56.6013991,25.1569507 L55.5027531,24.0807175 L55.3337307,24.3497758 Z M48.3192989,11.9730941 C50.3475685,11.9730941 51.615237,13.4080716 51.953282,16.0986545 L44.2627597,16.0986545 C44.6853159,13.5874438 46.2065181,11.9730941 48.3192989,11.9730941 L48.3192989,11.9730941 Z" id="Shape"></path>
                        <path d="M79.8755136,25.9519516 C79.2723234,25.9519516 78.4967932,25.7777775 78.4967932,24.1231228 L78.4967932,0 L77.2904128,0 L71.7755312,1.65465463 L71.7755312,2.87387384 L74.705312,4.52852847 L74.705312,10.1891891 C72.9819115,9.66666655 71.6893611,9.49249238 70.4829808,9.49249238 C65.0542692,9.49249238 60.5734278,14.3693692 60.5734278,20.1171169 C60.5734278,25.0810808 63.9340588,28.9999997 68.3287301,28.9999997 C70.4829808,28.9999997 72.8095715,28.0420417 74.7914821,26.2132129 L74.7914821,28.9999997 L75.9978624,28.9999997 L81.426574,27.7807804 L81.426574,25.6906904 L81.0818939,25.6906904 C80.5648738,25.8648646 80.2201937,25.9519516 79.8755136,25.9519516 M69.6212807,11.5825826 C71.5170213,11.5825826 74.7053123,12.8888889 74.7053123,17.93994 L74.7053123,23.6006006 C73.5851019,24.993994 72.0340414,25.7777778 70.2244708,25.7777778 C65.9159694,25.7777778 64.3649089,20.987988 64.3649089,17.93994 C64.2787389,14.4564565 66.6914997,11.5825826 69.6212807,11.5825826" id="Shape"></path>
                        <path d="M89.9122712,5 C91.2663717,5 92.349652,3.90909091 92.349652,2.54545455 C92.349652,1.18181818 91.2663717,0 89.9122712,0 C88.5581708,0 87.3846171,1.09090909 87.3846171,2.54545455 C87.3846171,3.90909091 88.4678974,5 89.9122712,5" id="Shape"></path>
                        <path d="M90.9428889,24.1192658 L90.9428889,10 L89.7843808,10 L84.405593,12.0045871 L84.405593,13.2247706 L87.3018633,14.7935779 L87.3018633,24.3807337 C87.3018633,26.3853208 85.977854,27.0825685 84.7365953,27.0825685 L84.5710941,27.0825685 L84.5710941,28.9999997 L93.3426558,28.9999997 L93.3426558,27.1697245 L93.1771546,27.1697245 C91.6876441,27.0825685 90.9428889,26.036697 90.9428889,24.1192658" id="Shape"></path>
                        <path d="M113.202795,3.26139814 C113.202795,1.41033433 111.216781,0 108.53998,0 C103.790816,0 100.682272,3.26139814 100.595924,8.55015187 C100.595924,9.9604862 100.336879,10.136778 98.60991,10.136778 L97.3146836,10.136778 L97.3146836,12.5167172 L100.595924,12.5167172 L100.595924,24.0638295 C100.595924,26.179331 99.7324396,27.0607899 97.5737289,27.0607899 L97.3146836,27.0607899 L97.3146836,28.9999997 L108.53998,28.9999997 L108.53998,27.0607899 L108.367283,27.0607899 C104.999694,27.0607899 104.395255,26.2674769 104.395255,23.7112459 L104.395255,12.5167172 L109.144419,12.5167172 L109.144419,10.136778 L104.395255,10.136778 L104.395255,5.72948321 C104.395255,2.90881455 105.949527,2.20364739 106.899359,2.20364739 C107.762844,2.20364739 108.367283,2.90881455 108.885373,3.61398172 C109.489812,4.40729478 110.094251,5.20060784 111.130432,5.20060784 C112.339311,5.20060784 113.202795,4.40729478 113.202795,3.26139814" id="Shape"></path>
                        <path d="M126.999256,24.2600897 L126.830233,24.3497758 C125.393542,25.6950673 123.87234,26.32287 122.097604,26.32287 C120.322868,26.32287 118.717155,25.6053812 117.533998,24.2600897 C116.181818,22.735426 115.505728,20.5829596 115.505728,18.0717489 L128.01339,18.0717489 L128.01339,17.8923767 C128.01339,14.7533632 125.647076,10 120.576402,10 C115.759262,10 112.20979,14.3946188 112.20979,20.2242152 C112.20979,25.8744395 115.674751,30 120.576402,30 C123.618806,30 126.323166,28.2959641 128.01339,25.3363229 L128.097901,25.1569507 L126.999256,24.2600897 Z M119.900312,11.9730941 C121.928582,11.9730941 123.196251,13.4080716 123.534296,16.0986545 L115.843773,16.0986545 C116.266329,13.5874438 117.787532,11.9730941 119.900312,11.9730941 L119.900312,11.9730941 Z" id="Shape"></path>
                        <polygon id="Shape" points="128.097901 0 122.461916 0 118.167832 6.99999983 119.957033 6.99999983"></polygon>
                    </g>
                </g>
            </g>
        </g>
    </g>
</svg>